# xmcd
#
# Track frame offsets: 
#        150
#        18592
#        35242
#        47132
#        74272
#        90560
#        106752
#        117654
#        139172
#        156507
#        179907
#        196832
#        208797
#
# Disc length: 3063 seconds
#
# Revision: 0
# Processed by: cddbd v1.5.2PL0 Copyright (c) Steve Scherf et al.
# Submitted via: ExactAudioCopy v0.99pb4
#
DISCID=c70bf50d
DTITLE=Dave Baker - Dead Men Don't Sweat
DYEAR=1900
DGENRE=Blues
TTITLE0=Let The Good Times Roll
TTITLE1=Live With That
TTITLE2=I Ai'nt Got You
TTITLE3=Crunchy Rappin' Blues
TTITLE4=Did'nt Do Me No Good
TTITLE5=Hot Cha Baby
TTITLE6=Mick Cherry
TTITLE7=Sunset Road
TTITLE8=Runnin'
TTITLE9=Bad Bad Whiskey
TTITLE10=Now I Got You
TTITLE11=Guilty
TTITLE12=Please Do The Do
EXTD=
EXTT0=
EXTT1=
EXTT2=
EXTT3=
EXTT4=
EXTT5=
EXTT6=
EXTT7=
EXTT8=
EXTT9=
EXTT10=
EXTT11=
EXTT12=
PLAYORDER=
